<?xml version="1.0" standalone="no"?>
<!DOCTYPE svg PUBLIC "-//W3C//DTD SVG 20010904//EN"
 "http://www.w3.org/TR/2001/REC-SVG-20010904/DTD/svg10.dtd">
<svg version="1.0" xmlns="http://www.w3.org/2000/svg"
 width="700.000000pt" height="700.000000pt" viewBox="0 0 700.000000 700.000000"
 preserveAspectRatio="xMidYMid meet">
<metadata>
Created by potrace 1.14, written by Peter Selinger 2001-2017
</metadata>
<g transform="translate(0.000000,700.000000) scale(0.100000,-0.100000)"
fill="#000000" stroke="none">
<path d="M3299 6996 c-2 -2 -44 -7 -93 -11 -50 -4 -97 -8 -105 -10 -9 -1 -42
-6 -74 -9 -31 -4 -101 -16 -155 -26 -125 -25 -131 -26 -205 -45 -34 -9 -72
-19 -85 -21 -52 -10 -304 -98 -416 -145 -161 -68 -287 -132 -494 -254 -81 -48
-288 -198 -392 -284 -95 -79 -121 -103 -253 -236 -376 -377 -663 -845 -833
-1355 -31 -94 -90 -313 -98 -364 -4 -21 -8 -41 -10 -45 -2 -3 -7 -28 -10 -55
-4 -27 -9 -52 -11 -56 -2 -3 -6 -33 -10 -65 -3 -33 -8 -67 -10 -75 -3 -8 -7
-51 -11 -95 -3 -44 -8 -96 -10 -115 -6 -67 -6 -386 1 -455 3 -38 8 -95 10
-125 4 -47 18 -156 30 -226 97 -598 346 -1149 744 -1643 103 -128 308 -336
446 -452 103 -87 293 -227 379 -279 32 -19 74 -46 94 -59 64 -42 332 -176 447
-224 139 -57 325 -120 458 -153 116 -30 116 -30 217 -49 68 -13 93 -17 170
-30 28 -5 81 -11 190 -22 188 -19 637 -6 815 23 22 3 51 8 65 10 341 56 708
177 1028 341 117 60 370 212 423 254 13 11 60 47 104 80 173 131 403 347 512
479 15 19 39 46 52 60 41 44 186 241 247 335 282 438 444 874 532 1435 10 63
9 883 -1 950 -5 30 -13 78 -18 105 -5 28 -12 65 -15 84 -3 19 -21 95 -40 170
-19 75 -36 144 -39 155 -11 48 -92 272 -132 366 -48 112 -147 313 -196 395
-80 133 -274 416 -306 445 -3 3 -28 32 -56 65 -27 33 -61 72 -75 86 -14 15
-46 48 -71 75 -90 95 -228 221 -355 324 -112 91 -342 242 -499 327 -165 90
-442 211 -540 237 -5 2 -17 6 -25 9 -18 7 -129 40 -185 56 -61 16 -112 28
-200 47 -118 24 -116 23 -165 30 -25 3 -47 8 -50 9 -3 2 -41 6 -85 10 -44 4
-89 9 -100 12 -23 5 -531 14 -536 9z m416 -1757 c898 -108 1565 -867 1550
-1764 -2 -106 -10 -199 -21 -260 -2 -11 -9 -47 -15 -80 -16 -91 -82 -283 -135
-392 -201 -420 -571 -749 -1010 -898 -207 -70 -341 -90 -584 -89 -167 0 -199
3 -347 33 -594 122 -1090 563 -1292 1150 -35 102 -76 288 -86 391 -7 74 -7
290 0 335 27 187 25 173 44 255 50 217 178 479 327 667 64 81 245 256 324 314
201 146 391 237 622 295 96 24 115 28 238 43 87 11 298 11 385 0z"/>
</g>
</svg>
